<svg width="434" height="169" viewBox="0 0 434 169" fill="none" xmlns="http://www.w3.org/2000/svg">
<path fill-rule="evenodd" clip-rule="evenodd" d="M416.902 22.0887C417.16 22.567 418.195 25.6019 418.676 27.2903C421.367 36.7429 421.731 46.1496 419.714 54.1284C417.894 61.3259 414.298 67.3261 408.63 72.6225C405.182 75.8441 401.127 78.8194 396.634 81.4241C394.747 82.5185 391.763 84.0722 391.693 83.9973C391.55 83.8434 391.13 81.4296 391.012 80.0748C390.92 79.0323 390.978 76.8961 391.128 75.783C391.629 72.0734 393.192 68.3952 395.744 64.9249C396.707 63.6144 397.609 62.5553 399.018 61.0803C399.7 60.3667 400.658 59.3634 401.148 58.8507C403.351 56.5459 405.637 53.8939 407.283 51.7314C411.104 46.7127 413.679 41.7663 414.413 38.0335C414.609 37.0375 414.583 36.9389 414.356 37.811C413.546 40.9101 411.264 44.8681 407.914 48.982C405.639 51.7767 402.5 54.9687 398.908 58.1415C398.352 58.6319 397.494 59.4 396.999 59.8486C392.686 63.7621 389.795 67.9461 388.267 72.4848C387.492 74.7903 387.152 76.6154 387.009 79.2387L386.941 80.4928L386.237 79.0993C385.85 78.3329 385.412 77.43 385.263 77.0928C382.056 69.8298 381.206 63.1052 382.743 57.1383C384.255 51.2621 388.188 46.1737 394.331 42.1436C394.81 41.8295 395.906 41.1541 396.766 40.6428C404.077 36.2964 409.45 32.0614 413.177 27.7086C414.904 25.6909 416.068 23.8789 416.793 22.0799C416.837 21.9717 416.839 21.9719 416.902 22.0887Z" fill="#35AE21"/>
<path fill-rule="evenodd" clip-rule="evenodd" d="M0.469773 97.8133C1.17836 98.2582 5.87902 100.728 7.61359 101.568C17.8817 106.534 28.3943 110.234 39.0925 112.646C50.8055 115.286 62.6132 116.163 73.4073 115.194C76.0931 114.953 79.4026 114.524 79.7697 114.37C91.9999 113.5 112 104.5 112 104.5C110.5 101.568 109 97.1331 109 93.4999C109 84.1371 109.5 81.4999 110.5 76.4999C115 68.1848 117.891 62.3456 128.568 57.7589C132.196 56.1998 126.859 56.3597 126.528 56.355C125.474 56.3405 119.684 57.8278 116.851 58.8411C109.631 61.423 103.664 64.7676 94.8542 71.1703C88.5168 75.7761 81.7434 80.2036 75.5499 83.789C63.2286 90.9216 50.6865 95.7325 41.4488 96.8695C39.2428 97.1411 38.6037 97.1085 40.3149 96.8118C47.4593 95.5728 56.9992 91.5843 66.6554 85.7992C73.9872 81.4067 82.3894 75.2796 90.8106 68.1848C95.5872 64.1605 97.5588 62.5735 99.9945 60.7921C108.774 54.371 118.041 50.1296 127.248 48.319C133.89 47.0126 139.706 46.8727 147.114 47.8413L147.698 47.9175L147.183 47.4967C146.15 46.6523 142.215 43.9646 139.841 42.4814C125.426 33.477 110.947 29.0695 97.6897 29.6498C85.6178 30.1783 74.9703 34.3581 64.4259 42.7079C62.5454 44.1969 56.7261 49.7639 55.0317 51.6947C54.3349 52.4889 52.3808 54.8281 50.6895 56.8931C48.9981 58.9579 46.8166 61.5749 45.8417 62.7085C34.4944 75.9019 22.9342 86.1275 12.5995 92.1126C8.23216 94.6419 3.57659 96.6331 0.706731 97.1992C-0.133159 97.3649 -0.154845 97.4211 0.469773 97.8133ZM38.5865 97.0554C38.6063 97.0365 38.7532 97.0396 38.9131 97.0626C39.1763 97.1004 39.1762 97.1069 38.9115 97.1331C38.6334 97.1605 38.508 97.1304 38.5865 97.0554Z" fill="#35AE21"/>
<path d="M259.792 75.5199C261.136 75.5199 262.512 75.7439 263.92 76.1919C265.392 76.5759 266.704 77.1839 267.856 78.0159C269.072 78.7839 270.064 79.7759 270.832 80.9919C271.6 82.2079 271.984 83.6479 271.984 85.3119C271.984 88.6399 270.384 91.3279 267.184 93.3759C263.984 95.4239 259.568 96.4479 253.936 96.4479C253.488 96.4479 253.072 96.6079 252.688 96.9279C252.368 97.1839 252.208 97.6639 252.208 98.3679C252.208 99.5839 252.784 100.512 253.936 101.152C255.088 101.792 256.72 102.112 258.832 102.112C260.176 102.112 261.424 101.824 262.576 101.248C263.792 100.608 264.912 99.9359 265.936 99.2319C267.024 98.4639 268.048 97.7919 269.008 97.2159C270.032 96.5759 270.992 96.2559 271.888 96.2559C272.912 96.2559 273.456 96.6399 273.52 97.4079C273.648 98.1759 273.392 99.1679 272.752 100.384C272.176 101.536 271.28 102.784 270.064 104.128C268.848 105.472 267.408 106.752 265.744 107.968C264.144 109.12 262.352 110.08 260.368 110.848C258.448 111.616 256.464 112 254.416 112C250.064 112 246.544 111.104 243.856 109.312C241.232 107.52 239.344 105.28 238.192 102.592C237.104 99.8399 236.784 96.8959 237.232 93.7599C237.68 90.6239 238.8 87.7119 240.592 85.0239C242.448 82.2719 244.976 79.9999 248.176 78.2079C251.44 76.4159 255.312 75.5199 259.792 75.5199ZM252.784 89.3439C253.232 89.4719 253.648 89.5679 254.032 89.6319C254.416 89.6959 254.8 89.7279 255.184 89.7279C256.528 89.7279 257.712 89.4399 258.736 88.8639C259.76 88.2239 260.496 87.5519 260.944 86.8479C261.456 86.0799 261.584 85.4079 261.328 84.8319C261.136 84.1919 260.464 83.8719 259.312 83.8719C257.84 83.8719 256.528 84.4159 255.376 85.5039C254.288 86.5279 253.424 87.8079 252.784 89.3439ZM272.036 99.6159L279.428 59.1039C279.556 58.2719 279.524 57.7279 279.332 57.4719C279.14 57.2159 278.852 57.0879 278.468 57.0879C278.084 57.0879 277.668 57.1839 277.22 57.3759C276.772 57.5039 276.42 57.5679 276.164 57.5679C275.972 57.5679 275.876 57.4719 275.876 57.2799C275.876 56.8319 276.324 56.2239 277.22 55.4559C278.18 54.6879 279.3 53.9199 280.58 53.1519C281.924 52.3839 283.332 51.7439 284.804 51.2319C286.276 50.6559 287.588 50.3679 288.74 50.3679C289.764 50.3679 290.628 50.5919 291.332 51.0399C292.036 51.4879 292.612 52.0639 293.06 52.7679C293.508 53.4079 293.796 54.1439 293.924 54.9759C294.052 55.8079 294.052 56.6079 293.924 57.3759L289.988 77.1519C289.732 78.4959 289.668 79.1679 289.796 79.1679C289.988 79.1679 290.5 78.9119 291.332 78.3999C292.228 77.8239 293.476 77.2159 295.076 76.5759C296.74 75.8719 298.884 75.5199 301.508 75.5199C304.196 75.5199 306.244 76.4159 307.652 78.2079C309.124 79.9999 309.988 82.2719 310.244 85.0239C310.5 87.7119 310.148 90.6239 309.188 93.7599C308.228 96.8959 306.692 99.8399 304.58 102.592C302.532 105.28 299.876 107.52 296.612 109.312C293.348 111.104 289.54 112 285.188 112C283.78 112 282.212 111.712 280.484 111.136C278.82 110.56 277.284 109.728 275.876 108.64C274.532 107.552 273.444 106.24 272.612 104.704C271.844 103.168 271.652 101.472 272.036 99.6159ZM291.908 95.1999C293.38 95.1999 294.532 94.6879 295.364 93.6639C296.26 92.5759 296.772 91.4239 296.9 90.2079C297.092 88.9279 296.868 87.7759 296.228 86.7519C295.588 85.7279 294.532 85.2159 293.06 85.2159C291.524 85.2159 290.308 85.7279 289.412 86.7519C288.58 87.7759 288.1 88.9279 287.972 90.2079C287.844 91.4239 288.068 92.5759 288.644 93.6639C289.284 94.6879 290.372 95.1999 291.908 95.1999ZM332.073 75.5199C333.417 75.5199 334.793 75.7439 336.201 76.1919C337.673 76.5759 338.985 77.1839 340.137 78.0159C341.353 78.7839 342.345 79.7759 343.113 80.9919C343.881 82.2079 344.265 83.6479 344.265 85.3119C344.265 88.6399 342.665 91.3279 339.465 93.3759C336.265 95.4239 331.849 96.4479 326.217 96.4479C325.769 96.4479 325.353 96.6079 324.969 96.9279C324.649 97.1839 324.489 97.6639 324.489 98.3679C324.489 99.5839 325.065 100.512 326.217 101.152C327.369 101.792 329.001 102.112 331.113 102.112C332.457 102.112 333.705 101.824 334.857 101.248C336.073 100.608 337.193 99.9359 338.217 99.2319C339.305 98.4639 340.329 97.7919 341.289 97.2159C342.313 96.5759 343.273 96.2559 344.169 96.2559C345.193 96.2559 345.737 96.6399 345.801 97.4079C345.929 98.1759 345.673 99.1679 345.033 100.384C344.457 101.536 343.561 102.784 342.345 104.128C341.129 105.472 339.689 106.752 338.025 107.968C336.425 109.12 334.633 110.08 332.649 110.848C330.729 111.616 328.745 112 326.697 112C322.345 112 318.825 111.104 316.137 109.312C313.513 107.52 311.625 105.28 310.473 102.592C309.385 99.8399 309.065 96.8959 309.513 93.7599C309.961 90.6239 311.081 87.7119 312.873 85.0239C314.729 82.2719 317.257 79.9999 320.457 78.2079C323.721 76.4159 327.593 75.5199 332.073 75.5199ZM325.065 89.3439C325.513 89.4719 325.929 89.5679 326.313 89.6319C326.697 89.6959 327.081 89.7279 327.465 89.7279C328.809 89.7279 329.993 89.4399 331.017 88.8639C332.041 88.2239 332.777 87.5519 333.225 86.8479C333.737 86.0799 333.865 85.4079 333.609 84.8319C333.417 84.1919 332.745 83.8719 331.593 83.8719C330.121 83.8719 328.809 84.4159 327.657 85.5039C326.569 86.5279 325.705 87.8079 325.065 89.3439ZM342.685 111.136C343.197 108.256 343.613 105.984 343.933 104.32C344.189 102.656 344.381 101.312 344.509 100.288C344.701 99.2639 344.829 98.3999 344.893 97.6959C345.021 96.9919 345.149 96.1279 345.277 95.1039C345.469 94.0799 345.725 92.7679 346.045 91.1679C346.365 89.5039 346.781 87.2319 347.293 84.3519C347.485 83.4559 347.453 82.8799 347.197 82.6239C347.005 82.3039 346.749 82.1439 346.429 82.1439C345.981 82.1439 345.533 82.2399 345.085 82.4319C344.637 82.6239 344.253 82.7199 343.933 82.7199C343.741 82.7199 343.645 82.6239 343.645 82.4319C343.645 81.9839 344.093 81.3759 344.989 80.6079C345.949 79.8399 347.101 79.0719 348.445 78.3039C349.853 77.5359 351.357 76.8959 352.957 76.3839C354.557 75.8079 356.029 75.5199 357.373 75.5199C358.141 75.5199 358.845 75.5839 359.485 75.7119C360.189 75.7759 360.765 75.9679 361.213 76.2879C361.725 76.6079 362.077 77.0879 362.269 77.7279C362.461 78.3679 362.461 79.2319 362.269 80.3199L361.405 84.5439C363.709 81.1519 365.917 78.8159 368.029 77.5359C370.141 76.1919 372.125 75.5199 373.981 75.5199C375.709 75.5199 377.117 75.9679 378.205 76.8639C379.293 77.6959 380.093 78.7839 380.605 80.1279C381.181 81.4079 381.437 82.8159 381.373 84.3519C381.373 85.8239 381.053 87.2319 380.413 88.5759C379.837 89.8559 378.941 90.9439 377.725 91.8399C376.509 92.7359 375.037 93.1839 373.309 93.1839C371.389 93.1839 369.757 92.6079 368.413 91.4559C367.069 90.3039 366.333 88.3839 366.205 85.6959C365.821 85.9519 365.277 86.4639 364.573 87.2319C363.933 87.9359 363.261 88.7359 362.557 89.6319C361.917 90.4639 361.309 91.3279 360.733 92.2239C360.157 93.1199 359.773 93.8559 359.581 94.4319C359.133 95.9039 358.781 97.5359 358.525 99.3279C358.333 101.12 358.141 102.656 357.949 103.936C357.565 106.176 356.957 107.84 356.125 108.928C355.293 110.016 354.077 110.56 352.477 110.56C351.325 110.56 350.109 110.368 348.829 109.984C347.549 109.6 346.461 109.408 345.565 109.408C345.053 109.408 344.669 109.504 344.413 109.696C344.157 109.888 344.029 110.272 344.029 110.848C344.029 111.616 343.805 112 343.357 112C342.781 112 342.557 111.712 342.685 111.136ZM404.052 96.0639C405.588 96.0639 406.836 96.4799 407.796 97.3119C408.82 98.1439 409.716 99.0719 410.484 100.096C411.252 101.056 411.988 101.952 412.692 102.784C413.396 103.616 414.196 104.032 415.092 104.032C415.796 104.032 416.372 103.84 416.82 103.456C417.332 103.008 417.588 102.496 417.588 101.92C417.588 100.96 416.884 100.064 415.476 99.2319C414.132 98.3359 412.596 97.3439 410.868 96.2559C409.204 95.1039 407.668 93.7919 406.26 92.3199C404.916 90.7839 404.244 88.8959 404.244 86.6559C404.244 84.7999 404.724 83.1999 405.684 81.8559C406.708 80.4479 407.988 79.2959 409.524 78.3999C411.06 77.4399 412.724 76.7359 414.516 76.2879C416.308 75.7759 418.004 75.5199 419.604 75.5199C422.484 75.5199 424.852 75.8399 426.708 76.4799C428.564 77.1199 429.972 77.9199 430.932 78.8799C431.956 79.8399 432.596 80.8959 432.852 82.0479C433.108 83.1999 433.044 84.2559 432.66 85.2159C432.34 86.1759 431.764 86.9759 430.932 87.6159C430.1 88.2559 429.108 88.5759 427.956 88.5759C426.868 88.5759 425.908 88.2879 425.076 87.7119C424.308 87.1359 423.604 86.4959 422.964 85.7919C422.324 85.0879 421.684 84.4479 421.044 83.8719C420.468 83.2959 419.796 83.0399 419.028 83.1039C418.004 83.1039 417.492 83.5199 417.492 84.3519C417.492 85.3119 418.196 86.2399 419.604 87.1359C421.012 88.0319 422.58 89.0559 424.308 90.2079C426.036 91.2959 427.604 92.5439 429.012 93.9519C430.42 95.3599 431.124 97.0559 431.124 99.0399C431.124 101.216 430.612 103.104 429.588 104.704C428.564 106.304 427.188 107.648 425.46 108.736C423.732 109.824 421.748 110.656 419.508 111.232C417.268 111.744 414.932 112 412.5 112C409.492 112 406.996 111.616 405.012 110.848C403.028 110.016 401.492 109.024 400.404 107.872C399.316 106.72 398.644 105.44 398.388 104.032C398.068 102.624 398.1 101.344 398.484 100.192C398.868 99.0399 399.54 98.0799 400.5 97.3119C401.524 96.4799 402.708 96.0639 404.052 96.0639Z" fill="black"/>
<path d="M146.544 55.4079C151.536 55.4079 155.664 56.2239 158.928 57.8559C162.192 59.4879 164.784 61.6959 166.704 64.4799C168.624 67.1679 169.92 70.3359 170.592 73.9839C171.36 77.6319 171.696 81.5199 171.6 85.6479C171.504 89.7759 171.072 93.9999 170.304 98.3199C169.536 102.544 168.624 106.672 167.568 110.704C166.512 114.736 165.36 118.528 164.112 122.08C162.96 125.632 161.904 128.704 160.944 131.296C167.952 124.096 173.472 115.984 177.504 106.96C181.632 97.9359 183.696 87.9519 183.696 77.0079C183.696 74.1279 184.944 72.1599 187.44 71.1039C189.264 70.4319 190.896 70.5759 192.336 71.5359C193.872 72.4959 195.408 74.5119 196.944 77.5839C199.632 83.0559 201.168 89.8719 201.552 98.0319C201.936 106.192 201.168 115.504 199.248 125.968C210.096 112.24 215.52 98.1759 215.52 83.7759C215.52 83.2959 215.472 82.7199 215.376 82.0479C215.28 81.3759 215.088 80.7519 214.8 80.1759C214.608 79.5039 214.32 78.9279 213.936 78.4479C213.552 77.9679 213.024 77.7279 212.352 77.7279C211.488 77.7279 210.816 78.1119 210.336 78.8799C209.952 79.6479 209.52 80.5119 209.04 81.4719C208.656 82.3359 208.224 83.1519 207.744 83.9199C207.36 84.6879 206.736 85.0719 205.872 85.0719C204.72 85.0719 203.664 84.2559 202.704 82.6239C201.744 80.9919 201.024 78.9759 200.544 76.5759C200.064 74.1759 199.872 71.5359 199.968 68.6559C200.16 65.7759 200.736 63.1359 201.696 60.7359C202.752 58.3359 204.24 56.3199 206.16 54.6879C208.176 53.0559 210.768 52.2399 213.936 52.2399C218.64 52.2399 222.288 53.6799 224.88 56.5599C227.472 59.3439 229.152 63.0399 229.92 67.6479C230.784 72.1599 230.88 77.3919 230.208 83.3439C229.536 89.1999 228.288 95.1999 226.464 101.344C224.64 107.392 222.288 113.392 219.408 119.344C216.528 125.2 213.36 130.432 209.904 135.04C206.448 139.552 202.752 143.248 198.816 146.128C194.88 148.912 190.944 150.304 187.008 150.304C184.224 150.304 181.968 149.584 180.24 148.144C178.608 146.8 177.792 144.976 177.792 142.672C177.792 141.04 178.176 139.216 178.944 137.2C179.712 135.184 180.528 133.024 181.392 130.72C182.256 128.32 182.976 125.824 183.552 123.232C184.224 120.544 184.464 117.808 184.272 115.024C181.968 120.688 179.232 125.776 176.064 130.288C172.992 134.704 169.776 138.496 166.416 141.664C163.152 144.736 159.936 147.088 156.768 148.72C153.6 150.352 150.864 151.168 148.56 151.168C146.064 151.168 144.384 150.208 143.52 148.288C142.752 146.464 143.04 143.872 144.384 140.512C144.768 139.552 145.44 137.632 146.4 134.752C147.456 131.776 148.512 128.416 149.568 124.672C150.624 120.832 151.584 116.8 152.448 112.576C153.312 108.352 153.792 104.512 153.888 101.056C154.08 97.5039 153.696 94.6239 152.736 92.4159C151.872 90.1119 150.24 88.9599 147.84 88.9599C146.112 88.9599 144.72 89.4879 143.664 90.5439C142.704 91.5999 141.984 92.7519 141.504 93.9999C141.12 95.1519 141.072 96.2559 141.36 97.3119C141.648 98.3679 142.224 98.8959 143.088 98.8959C143.76 98.8959 144.528 98.7039 145.392 98.3199C146.352 97.8399 147.216 97.5999 147.984 97.5999C149.04 97.5999 149.568 98.3199 149.568 99.7599C148.704 104.176 146.736 107.632 143.664 110.128C140.688 112.528 136.56 113.728 131.28 113.728C126.96 113.728 123.504 112.288 120.912 109.408C118.416 106.528 116.736 102.928 115.872 98.6079C115.104 94.2879 115.152 89.6319 116.016 84.6399C116.976 79.5519 118.704 74.8479 121.2 70.5279C123.792 66.2079 127.2 62.6079 131.424 59.7279C135.648 56.8479 140.688 55.4079 146.544 55.4079Z" fill="black"/>
<path d="M237.714 144H249.241V141.474H240.799V126.29H237.714V144ZM265.394 144H268.606L262.296 126.29H259.465L261.154 131.533L265.394 144ZM252 144H255.2L259.414 131.597L261.128 126.29H258.297L252 144ZM256.406 139.188H264.15V136.713H256.406V139.188ZM272.457 144H275.402V129.819H275.149L282.817 144H286.663V126.29H283.718V140.471H283.972L276.304 126.29H272.457V144ZM291.924 144H298.474C303.895 144 306.853 140.242 306.853 135.126C306.853 129.959 303.832 126.29 298.589 126.29H291.924V144ZM295.009 141.474V128.816H298.195C301.889 128.816 303.73 131.254 303.73 135.1C303.73 139.125 301.699 141.474 298.195 141.474H295.009ZM317.547 144.33C320.912 144.33 324.073 142.743 324.073 138.998C324.073 135.773 321.788 134.529 317.928 133.488C315.656 132.866 313.929 132.422 313.929 130.708C313.929 129.096 315.44 128.524 317.014 128.524C319.02 128.524 320.353 129.388 320.493 131.533H323.54C323.362 127.813 320.988 125.96 317.078 125.96C313.701 125.96 310.844 127.382 310.844 130.809C310.844 134.263 313.739 135.304 316.456 136.078C318.982 136.776 320.988 137.182 320.988 139.138C320.988 140.775 319.591 141.766 317.522 141.766C315.072 141.766 313.574 140.394 313.447 137.944H310.4C310.501 141.905 313.091 144.33 317.547 144.33ZM335.935 144.33C340.315 144.33 343.057 141.651 343.755 137.271H340.695C340.289 139.836 338.563 141.766 335.96 141.766C332.85 141.766 330.831 139.099 330.831 135.113C330.831 131.432 332.507 128.524 335.998 128.524C338.271 128.524 339.934 129.718 340.645 132.104H343.704C342.803 128.169 340.048 125.96 335.998 125.96C330.895 125.96 327.695 129.54 327.695 135.139C327.695 140.763 330.933 144.33 335.935 144.33ZM359.933 144H363.145L356.836 126.29H354.005L355.693 131.533L359.933 144ZM346.54 144H349.739L353.954 131.597L355.668 126.29H352.837L346.54 144ZM350.945 139.188H358.689V136.713H350.945V139.188ZM366.997 144H370.082V136.916H373.992C377.445 136.916 379.768 134.758 379.768 131.597C379.768 128.435 377.419 126.29 373.992 126.29H366.997V144ZM370.082 134.39V128.816H373.674C375.515 128.816 376.683 129.921 376.683 131.597C376.683 133.26 375.528 134.39 373.674 134.39H370.082ZM383.899 144H386.984V126.29H383.899V144ZM392.244 144H395.189V129.819H394.935L402.603 144H406.45V126.29H403.505V140.471H403.759L396.091 126.29H392.244V144ZM418.96 144.33C421.829 144.33 423.987 142.857 424.952 140.509L424.634 140.521L425.053 144H427.224V134.326H418.998V136.789H424.304C424.19 139.518 422.159 141.766 419.277 141.766C416.344 141.766 414.148 139.265 414.148 135.139C414.148 131.381 416.002 128.524 419.442 128.524C421.587 128.524 423.339 129.629 423.974 131.812H427.046C426.323 128.156 423.479 125.96 419.455 125.96C413.843 125.96 411.012 130.086 411.012 135.164C411.012 140.839 414.542 144.33 418.96 144.33Z" fill="black"/>
</svg>
